<svg
  width="100%"
  height="100%"
  viewBox="0 0 441 446"
  fill="none"
  xmlns="http://www.w3.org/2000/svg"
>
  <!-- Outer rotating cursor shape -->
  <path
    d="M200.333 1.53333C194.467 1.93333 189 2.73333 188.2 3.26666C185.667 5 183.933 11 181.667 27.1333L179.4 42.6L167.667 46.0667C161.133 48.0667 151.133 51.8 145.533 54.3333C136.733 58.3333 135 58.7333 133.133 57.2667C131.933 56.3333 126.333 51.5333 120.6 46.6C109 36.6 104.867 34.8667 99.5333 37.9333C91.9333 42.3333 54.3333 76.8667 54.3333 79.4C54.3333 80.8667 57.9333 89.4 62.4667 98.3333L70.6 114.467L64.2 124.467C60.6 129.933 55.2667 139 52.3333 144.6L47 154.867L37 155.667C18.8667 157.133 14.3333 157.933 11.5333 160.2C9.13334 162.2 8.20001 166.467 4.60001 192.867L0.466675 223.267L4.46667 226.867C7.26667 229.4 12.8667 231.8 22.2 234.333C29.8 236.333 36.0667 238.733 36.3333 239.533C36.4667 240.333 37.4 246.333 38.2 253C39.1333 259.533 41.1333 270.333 42.7333 276.867L45.5333 288.6L32.6 300.867C23.2667 309.533 19.6667 313.933 19.6667 316.2C19.6667 319.533 44.4667 361.133 50.2 367.267C54.6 372.2 57.8 372.067 75.6667 366.2L90.3333 361.533L100.733 370.6C106.333 375.533 114.2 381.8 118.067 384.333L125.133 389L124.2 401.667C122.733 419.533 122.867 424.067 125 426.333C127.4 428.6 174.867 445.667 179 445.667C183.8 445.667 187.933 441.267 195.667 428.333C199.667 421.533 203.533 415.8 204.333 415.667C205 415.4 213.267 414.867 222.6 414.6L239.667 413.933L246.467 426.2C255.4 442.067 257.533 444.333 263.8 444.333C269.533 444.333 315.4 429.133 318.2 426.333C320.467 424.067 320.733 419.133 319.267 401.533L318.2 388.6L325.267 383.533C329.133 380.6 336.867 374.333 342.333 369.533L352.467 360.733L366.333 365.8C382.6 371.8 387.4 372.2 391.267 367.933C396.867 361.533 421 319.267 421 315.667C421 312.867 418.333 309.267 409.4 300.2L397.933 288.333L400.867 275.4C402.467 268.2 404.467 257 405.4 250.467L407.133 238.6L422.2 233.667C437 228.867 441 226.333 441 221.533C441 220.333 439.267 206.867 437 191.533C433.8 169.133 432.6 163.4 430.467 161.267C428.333 159 424.733 158.333 411.4 157.133L395 155.667L388.067 142.733C384.333 135.667 378.867 126.333 376.067 122.2L370.733 114.467L378.6 97.8C385 84.3333 386.333 80.6 385.267 78.2C383.8 75.1333 348.067 42.7333 341.667 38.7333C334.6 34.4667 331.667 35.5333 317.933 47C311 52.8667 304.733 57.6667 303.933 57.6667C303.267 57.6667 298.6 55.9333 293.667 53.6667C288.867 51.5333 279.667 48.0667 273.267 46.2C266.867 44.2 261.267 42.2 260.733 41.8C260.2 41.4 258.733 33.1333 257.4 23.6667C254.2 -0.333336 254.867 0.199997 230.067 0.599997C219.533 0.73333 206.2 1.13333 200.333 1.53333ZM255 89.6667C279.267 96.2 297.8 106.733 316.2 124.333C345.133 152.2 359.667 186.867 359.667 228.333C359.667 280.467 329.667 328.733 283 352.067C261.4 362.733 245.533 366.333 219.667 366.2C195.533 366.067 180.733 362.467 159 351.8C122.067 333.533 97.6667 303.133 86.0667 260.6C83.6667 252.067 83.2667 246.467 83.2667 227C83.1333 205.933 83.5333 202.333 86.6 190.733C93.6667 164.867 106.6 142.733 125.4 124.733C146.6 104.467 168.733 93.2667 198.6 87.5333C212.733 84.8667 241.267 85.9333 255 89.6667Z"
    fill="url(#cursorGradient)"
  />
  <!-- Inner cursor pointer - stays static -->
  <path
    d="M154.333 137.667C151.133 140.867 151.267 143.267 157.133 175.667C159.267 187.4 163.4 211.667 166.333 229.667C169.4 247.667 173.533 272.2 175.667 284.2C177.933 296.2 179.667 307.8 179.667 309.933C179.667 315.133 184.333 323.933 187.8 325C193.4 326.867 197.933 323 212.333 304.2C220.2 294.067 227.133 285.667 227.667 285.667C228.733 285.667 237 298.2 248.867 317.933C255.933 329.8 260.867 335 265 335C267.4 335 278.2 328.6 285.4 323C292.067 317.8 290.733 313.267 275 287.667C265.8 272.6 261.667 264.733 262.733 264.2C263.667 263.667 274.6 261.133 287 258.333C311.133 253.133 314.333 251.533 314.333 244.733C314.333 239.533 313.667 238.867 237 185.667C230.067 180.733 210.867 167.4 194.6 155.933C163 133.8 159.667 132.333 154.333 137.667Z"
    fill="white"
    opacity="0.9"
  />
  <!-- Gradient definition matching pricing section style -->
  <defs>
    <linearGradient id="cursorGradient" x1="0%" y1="0%" x2="100%" y2="100%">
      <stop offset="0%" stop-color="#78fcd6" />
      <stop offset="50%" stop-color="#00ffb6" />
      <stop offset="100%" stop-color="#78fcd6" />
    </linearGradient>
  </defs>
</svg>

